<svg xmlns="http://www.w3.org/2000/svg">
  <g id="node">
    <path d="M20.6 5.1L12.4.3c-.5-.3-1.2-.3-1.7 0L2.3 5.1c-.5.3-.9.9-.9 1.5v9.5c0 .6.4 1.2.9 1.5l2.2 1.2c.6.3 1.2.5 1.9.5 1.3.1 2.3-.9 2.4-2.1V7.4c.1-.1 0-.3-.1-.3h-1c-.2 0-.5.2-.5.3v9.5c0 .7-.7 1.5-1.9.8L3 16.4c-.1 0-.1-.1-.1-.2V6.6c0-.1.1-.2.2-.2l8.3-4.8h.3l8.2 4.8c.1 0 0 .1 0 .2v9.7l-8.2 4.8h-.2l-2.1-1.3h-.2c-.4.2-.8.4-1.3.6-.1 0-.3.1.1.4l2.8 1.6c.3.1.6.2.9.2.3 0 .6-.1.9-.2l8.2-4.8c.5-.3.8-.9.8-1.5V6.6c-.2-.6-.5-1.2-1-1.5zm-6.5 9.5c-2.2 0-2.7-.6-2.8-1.7 0-.1-.1-.3-.2-.3H9.9c-.1 0-.2.2-.2.3 0 1.4.8 3.1 4.4 3.1 2.6 0 4.1-1 4.1-2.8s-1.2-2.3-3.8-2.6-2.8-.5-2.8-1.1.2-1.2 2.1-1.2c1.7 0 2.3.4 2.6 1.5 0 .1.1.2.2.2h1.1c.1 0 .1 0 .2-.1 0-.1.1-.1.1-.2-.2-1.9-1.5-2.9-4.1-2.9-2.4 0-3.8 1-3.8 2.7s1.4 2.3 3.7 2.5c2.7.3 2.9.7 2.9 1.2-.1 1-.8 1.4-2.5 1.4z"/>
    <text transform="translate(40 15.6)">
      NODEJS
    </text>
  </g>
  <g id="react">
    <g>
      <circle cx="11.5" cy="11.4" r="2"/>
      <path d="M19.2 8c-.3-.1-.8-.2-1.2-.4.1-.4.2-.9.3-1.3.4-2.4 0-4-1.2-4.7-.3-.2-.7-.3-1.1-.3-1.3 0-2.8.9-4.5 2.5C9.9 2.3 8.3 1.4 7 1.4c-.4 0-.8.1-1.1.3-1.1.6-1.6 2.3-1.2 4.7L5 7.6c-.4.2-.9.3-1.2.4-2.2.9-3.5 2-3.5 3.4s1.2 2.5 3.5 3.4c.3.1.8.2 1.2.4-.1.4-.2.9-.3 1.3-.4 2.4 0 4 1.2 4.7.3.2.7.3 1.1.3 1.3 0 2.9-.9 4.5-2.5 1.6 1.6 3.2 2.5 4.5 2.5.4 0 .8-.1 1.1-.3 1.1-.7 1.6-2.3 1.2-4.7-.1-.4-.2-.8-.3-1.3.4-.1.8-.3 1.2-.4 2.2-.9 3.5-2 3.5-3.4S21.5 8.9 19.2 8zm-2.6-5.4c.7.4 1 1.8.7 3.6-.1.4-.1.8-.3 1.2-.9-.2-1.9-.4-3-.4-.6-.9-1.2-1.6-1.9-2.3 1.3-1.3 2.7-2.2 3.8-2.2.3-.1.5 0 .7.1zm-2 10.6c-.3.6-.7 1.1-1.1 1.7-.7.1-1.3.1-2 .1s-1.4 0-2-.1c-.4-.6-.8-1.1-1.1-1.7-.3-.6-.7-1.2-.9-1.8l.9-1.8c.3-.6.7-1.1 1.1-1.7.7-.1 1.3-.1 2-.1s1.4 0 2 .1c.4.6.8 1.1 1.1 1.7.3.6.7 1.2.9 1.8l-.9 1.8zm1.5-.6c.3.6.5 1.2.7 1.8-.6.1-1.3.3-1.9.3.2-.3.4-.7.6-1.1.2-.3.4-.6.6-1zm-4.6 4.8l-1.2-1.5h2.4c-.4.6-.8 1.1-1.2 1.5zm-3.3-2.6c-.7-.1-1.3-.2-1.9-.3.2-.6.4-1.2.7-1.8.2.4.4.7.6 1.1.1.3.4.6.6 1zm-1.3-4.6c-.3-.6-.5-1.2-.7-1.8.6-.1 1.3-.3 1.9-.3-.1.3-.4.6-.6 1-.2.4-.4.7-.6 1.1zm4.6-4.8l1.2 1.5h-2.4c.4-.6.8-1.1 1.2-1.5zm4 3.7L14.9 8c.7.1 1.3.2 1.9.3-.2.6-.4 1.2-.7 1.8-.2-.3-.4-.6-.6-1zM5.7 6.2c-.3-1.9 0-3.2.7-3.6.2-.1.4-.2.6-.2 1.1 0 2.4.9 3.8 2.2-.6.7-1.3 1.5-1.9 2.3-1 .1-2 .3-3 .4 0-.3-.1-.7-.2-1.1zm-4.4 5.2c0-.8 1-1.7 2.8-2.4.4-.1.8-.3 1.2-.4.3.9.6 1.8 1.1 2.8-.4.9-.8 1.9-1.1 2.8-2.5-.7-4-1.8-4-2.8zm5.1 8.8c-.7-.4-1-1.8-.7-3.6.1-.4.1-.8.3-1.2.9.2 1.9.4 3 .4.6.9 1.2 1.6 1.9 2.3-1.3 1.3-2.7 2.2-3.8 2.2-.3.1-.5 0-.7-.1zm10.9-3.6c.3 1.9.1 3.2-.7 3.6-.2.1-.4.2-.6.2-1.1 0-2.4-.9-3.8-2.2.6-.7 1.3-1.5 1.9-2.3 1-.1 2-.3 3-.4 0 .3.1.7.2 1.1zm1.6-2.8c-.4.1-.8.3-1.1.4-.3-.9-.6-1.8-1.1-2.8.4-.9.8-1.9 1.1-2.8 2.5.7 4 1.8 4 2.8-.1.8-1.1 1.7-2.9 2.4z"/>
    </g>
    <text transform="translate(40 15.6)">
      REACT
    </text>
  </g>
  <g id="electron">
    <g>
      <path d="M16 18.5c-2.1 0-4.7-.8-7.1-2.2-1.5-.9-2.9-1.9-4-3.2-.1-.1-.1-.2-.1-.3s.1-.2.2-.3c.1-.1.2-.1.3-.1s.3.1.3.2c1.1 1.2 2.4 2.2 3.8 3 2.3 1.3 4.7 2 6.6 2 1 0 1.9-.2 2.4-.6.1-.1.2-.1.3-.1.2 0 .3.1.4.2s.1.2.1.4c0 .1-.1.2-.2.3-.7.4-1.8.7-3 .7zm-12.1-7c-.2 0-.3-.1-.4-.2-.9-1.7-1-3.1-.4-4.2s2-1.7 3.9-1.7c.6 0 1.2.1 1.9.2.1 0 .2.1.3.2V6c0 .2-.2.4-.5.4-.6-.1-1.2-.1-1.7-.1-1.5 0-2.6.4-3 1.3-.5.8-.3 2 .4 3.3.1.1.1.2 0 .4 0 .1-.1.2-.2.3-.1-.2-.2-.1-.3-.1z"/>
      <path d="M3.2 16.1c-.2 0-.4-.2-.5-.4-.4-2.5 2.2-5.9 6.2-8.2 1.5-.9 3.1-1.5 4.8-1.9.3 0 .5.2.5.4 0 .1 0 .2-.1.4s-.2.2-.3.2c-1.6.4-3.1 1-4.6 1.8-3.6 2.1-6.1 5.2-5.7 7.3.2.1.1.4-.3.4zM18 12.9c-.1 0-.2 0-.3-.1-.2-.2-.2-.5-.1-.7 1.5-1.8 2-3.5 1.4-4.6-.5-.8-1.5-1.2-3-1.3-.3 0-.5-.2-.5-.5s.2-.5.5-.5c1.8 0 3.1.6 3.8 1.7.9 1.5.3 3.6-1.5 5.7 0 .3-.1.3-.3.3z"/>
      <path d="M11.5 21.6c-1.7 0-3.2-1.5-4.2-4.2v-.3l.3-.3h.2c.2 0 .4.1.4.3.8 2.2 2 3.5 3.3 3.5.9 0 1.8-.7 2.5-1.9.1-.1.2-.2.4-.2.1 0 .2 0 .3.1s.2.2.2.3c0 .1 0 .2-.1.4-.9 1.5-2 2.3-3.3 2.3zm3.8-4.4c-.1 0-.2-.1-.3-.2s-.1-.2 0-.4c.5-1.5.7-3.1.7-4.7 0-4.1-1.4-7.7-3.3-8.6-.2-.1-.3-.4-.2-.6.1-.2.2-.3.4-.3h.2c2.3 1 3.9 4.9 3.9 9.4 0 1.7-.2 3.4-.7 5-.1.2-.2.3-.4.3l-.3.1zM19.4 18.1c-.8 0-1.5-.7-1.5-1.5s.7-1.5 1.5-1.5 1.5.7 1.5 1.5-.6 1.5-1.5 1.5zm0-2c-.3 0-.5.2-.5.5s.2.5.5.5.5-.2.5-.5-.2-.5-.5-.5zM3.6 18.1c-.8 0-1.5-.7-1.5-1.5s.7-1.5 1.5-1.5 1.5.7 1.5 1.5c-.1.8-.7 1.5-1.5 1.5zm0-2c-.3 0-.5.2-.5.5s.2.5.5.5.5-.2.5-.5-.2-.5-.5-.5z"/>
      <path d="M11.5 4.2c-.8 0-1.5-.7-1.5-1.5s.7-1.5 1.5-1.5 1.5.7 1.5 1.5-.7 1.5-1.5 1.5zm0-2.1c-.3 0-.5.2-.5.5s.2.6.5.6.5-.2.5-.5-.2-.6-.5-.6zM11.5 13c-.5 0-1-.4-1.1-.9-.1-.6.2-1.2.9-1.3h.2c.5 0 1 .4 1.1.9.1.6-.3 1.2-.9 1.3h-.2z"/>
    </g>
    <text transform="translate(40 15.6)">
      ELECTRON
    </text>
  </g>
  <g id="graphql">
    <g>
      <path d="M9.2 18.9c-.1 0-.1 0-.2-.1l-2.5-1.4c-.2-.1-.3-.4-.2-.6s.4-.3.6-.2L9.4 18c.2.1.3.4.2.6-.2.2-.3.3-.4.3zM18.7 13.2c-.2 0-.4-.2-.4-.4V9.9c0-.2.2-.4.4-.4s.4.2.4.4v2.8c0 .3-.2.5-.4.5zM13.1 6.2c-.1 0-.3-.1-.4-.2l-.2-.4c-.1-.2 0-.5.2-.6s.5 0 .6.2l.2.3c.1.2 0 .5-.2.6-.1.1-.2.1-.2.1zM6 12.9c-.1 0-.1 0-.2-.1-.2-.1-.3-.4-.2-.6l.8-1.3c.1-.2.4-.3.6-.2s.3.4.2.6l-.8 1.3c-.1.2-.2.3-.4.3zM13.7 6.7c-.2.1-.3.4-.2.6l3.5 6c.1.1.2.2.4.2.1 0 .1 0 .2-.1.2-.1.3-.4.2-.6l-3.5-6c-.2-.1-.4-.2-.6-.1z"/>
      <path d="M3.9 8.6v2c0 .2.2.4.4.4s.4-.2.4-.4v-2c.4-.1 1.1-.7 1.1-1.5 0-.1 0-.2-.1-.4l4.6-2.6-2.9 5c-.1.2-.1.5.2.6.1 0 .1.1.2.1s.3-.1.4-.2l2.9-5c.1 0 .3.1.4.1.4 0 .8-.2 1.1-.5l4.6 2.7v.3c0 .9.7 1.6 1.6 1.6.9 0 1.6-.7 1.6-1.6s-.7-1.6-1.6-1.6c-.5 0-.9.2-1.2.5L13 3.4V3c0-.9-.7-1.6-1.6-1.6S9.8 2.1 9.8 3v.4L5.3 6c-.2-.3-.7-.5-1.1-.5-.9 0-1.5.7-1.5 1.6 0 .7.4 1.3 1.2 1.5zM18.8 14.1c-.7 0-1.4.5-1.5 1.3H5.7c-.1-.8-.5-1.1-1.1-1.2v-1.6c0-.2-.2-.4-.4-.4s-.4.2-.4.4v1.5c-.7.2-1.2.8-1.2 1.5 0 .9.7 1.6 1.6 1.6.7 0 1.3-.7 1.5-1.1h11.4l-4.5 2.6c-.3-.3-.7-.5-1.1-.5-.9 0-1.6.7-1.6 1.6s.7 1.6 1.6 1.6 1.6-.7 1.6-1.6c0-.1 0-.3-.1-.4l4.6-2.7c.3.3.7.5 1.1.5.9 0 1.6-.7 1.6-1.5.1-.9-.7-1.6-1.5-1.6z"/>
    </g>
    <text transform="translate(40 15.6)">
      GRAPHQL
    </text>
  </g>
  <g id="unreal">
    <path d="M19.2 16.4c-.6 0-.8-.4-.8-.4 0-.2-.1-2.5-.1-4.9s0-4.9.1-4.9c.7-1.3 2.9-3.9 2.9-3.9-4.1.9-6.3 3.6-6.3 3.6-.7-.5-2-.4-2-.4.6.3 1.2 1.3 1.2 2.1v8.2S12.8 17 11.8 17c-.6 0-1-.3-1.2-.6l-.2-.4V5.9c-.1.1-.3.2-.5.2s-.5-.1-.6-.4-.2-.6-.2-1.2c0-1.9 2.1-3.1 2.1-3.1-2.7.7-5.2 2.1-8.5 5.9S0 14.2 0 14.2.9 12 3.1 9.7c1.1-1 1.8-1.3 2.4-1.4.6 0 .9.4.9.8v7.8c0 .8-.5.9-1 .9-.4 0-.7-.1-.7-.1 2.3 3.3 7.7 3.7 7.7 3.7l2.4-2.5h.1l2.2 1.8c4-2.4 5.9-6.7 5.9-6.7-2 1.9-3.1 2.4-3.8 2.4"/>
    <text transform="translate(40 15.6)">
      UNREAL ENGINE
    </text>
  </g>
  <g id="maya">
    <path d="M15.5,14.3l0.1,1.4l-0.7-1.4c-0.9-5.2-5.1-8-5.1-8L9.1,5.4l0.6,0.1C14.5,7.8,15.5,14.3,15.5,14.3z M5.4,11.8l1.7-1.4
      L6.2,9.7L5.4,11.8z M16.4,21.5l-0.2-0.3c-2.2-4.3-2.7-4.3-2.7-4.3s-1.2-1.1-2.7-0.2c0,0-1.5,0.7-1.7,2.1c0,0-0.1,1.5,0.4,1.9
      c0,0,0.9,1.2,2.8,0.7c0.6-0.1-1-1.4-1-1.4c0.2-0.1,0.5-0.1,0.5-0.1c2,0.1,2.6,0.9,2.6,0.9C12.9,23.7,8.7,22,8.7,22
      c-2.4-1.2-2.9-3.7-2.9-3.7c-0.4-2,0.4-3.5,0.4-3.5c0.7-1.7,0.5-2.1,0.5-2.1c-1.1,0.8-3.1,1.4-3.1,1.4C3.4,8.6,5.8,7.1,5.8,7.1
      c1.3,0,3.3,2.8,3.3,2.8C8.4,5.4,2.5,2.5,2.5,2.5S8.3,2,13.2,6.1c0,0,2.7,2.2,4,6.2C17.4,12.8,18.2,17.3,16.4,21.5z M15.4,11.5
      c0,0-0.9-2.9-3-4.9C12,6.3,10.4,4.8,7.7,3.9L5.9,3.5c0,0,2.2,1.7,2.9,3.3c0,0,1.1,2.7,0.5,4.3L9,11.5c0,0-1.6-2.4-2.9-3.4
      c0,0-1.5,2.2-1.4,4.5c0,0,2.1-0.8,2.7-1.2c0,0,0.6,1.2,0.2,2.5l-0.3,0.8c0,0-1.6,3.6,0.8,5.8c0,0-0.6-2.8,0.5-4.7l1.2-2.5
      c0,0,1.6-2.7,0.1-6c0,0,1.2,0.6,1.6,2.2c0.3,1.6,0.5,2.8-1.6,6.2c0,0,0.9-0.7,1.2-0.9c0.8-0.5,2.4-1.3,3.7,1c0,0,1.1,1.7,1.2,2.3
      C15.9,18.1,16.9,14.7,15.4,11.5z"/>
      <text transform="translate(40 15.6)">
        MAYA
      </text>
  </g>
  <g id="substance">
    <path d="M12.8,1.4c0,1.1,0,3.7,0,3.7s4.2,0,6.2,0c0.6,0,1,0.3,1.1,0.9c0,0.1,0,6.5,0,6.5s2.5,0,3.6,0c0.1,0,0.2,0,0.3,0
      c0.2,0,0.4,0.2,0.4,0.4c0,0.2-0.1,0.4-0.3,0.5c-0.1,0-0.2,0-0.3,0c-1.1,0-3.7,0-3.7,0s0,4.2,0,6.1c0,0.8-0.4,1.2-1.2,1.2
      c-4.4,0-8.8,0-13.2,0c-0.8,0-1.2-0.4-1.2-1.2c0-2,0-6.1,0-6.1s-3.7,0-3.7,0c-0.3,0-0.6-0.2-0.5-0.5c0-0.3,0.2-0.5,0.5-0.5
      c1.2,0,3.7,0,3.7,0s0-4.2,0-6.2c0-0.6,0.3-1,0.9-1.1c0.1,0,6.5,0,6.5,0s0-2.5,0-3.7c0-0.3,0.1-0.6,0.5-0.7
      C12.7,0.9,12.8,1.1,12.8,1.4z M7.1,13.2C7.1,13.2,7.1,13.2,7.1,13.2c0,0.9,0,1.8,0,2.6c0,0.1,0.1,0.2,0.1,0.2c1.7,1,3.3,1.9,5,2.9
      c0.1,0.1,0.2,0.1,0.3,0c1.6-1,3.3-1.9,5-2.9c0.1-0.1,0.2-0.1,0.2-0.3c0-0.8,0-1.6,0-2.4c0-0.2-0.1-0.2-0.2-0.3
      c-1.6-0.5-3.3-1.1-4.9-1.6c-0.7-0.2-1.4-0.5-2.2-0.7c0,0,0,0,0.1-0.1c0.6-0.4,1.3-0.7,1.9-1.1c0,0,0.1,0,0.2,0
      c0.9,0.5,1.8,1,2.6,1.5c0,0,0.1,0.1,0.1,0.2c0,0.2,0,0.4,0.1,0.5c0.1,0.1,0.3,0.1,0.4,0.2c0.1,0,0.1,0,0.2,0.1
      c0.6,0.2,1.1,0.4,1.7,0.6c0,0,0-0.1,0-0.1c0-0.8,0-1.7,0-2.5c0-0.1-0.1-0.2-0.1-0.2c-1.7-1-3.3-1.9-5-2.9c-0.1-0.1-0.2-0.1-0.3,0
      c-1.7,1-3.3,1.9-5,2.9C7.1,9.8,7,9.9,7.1,10c0,0.8,0,1.6,0,2.4c0,0.2,0,0.2,0.2,0.3c2.3,0.7,4.6,1.5,6.9,2.2c0.1,0,0.1,0,0.2,0.1
      c-0.3,0.2-0.2,0.1-1.2,0.5c-0.7,0.7-0.8,0.8-1,0.6c-0.8-0.4-1.5-0.9-2.3-1.3c-0.3-0.2-0.5-0.3-0.4-0.7c0-0.1-0.1-0.2-0.1-0.2
      C8.6,13.6,7.9,13.4,7.1,13.2z"/>
      <text transform="translate(40 15.6)">
        SUBSTANCE DESIGNER
      </text>
  </g>
  <g id="zbrush">
    <path d="M12.8,4.5c-0.1-0.4,0-0.9,0.3-1.4c0.4-0.6,0.8-0.9,1.3-0.9c0.6-0.1,1.2,0.3,1.7,1c0.5,0.7,0.7,1.3,0.7,1.9
      c0,0.3-0.5,0.6-1.5,0.6c-0.8,0.1-1.4,0-1.8-0.2C13.1,5.2,12.9,4.9,12.8,4.5z M23.8,22.1c-0.1,0.1-0.3,0.1-0.6,0
      c-0.6-0.3-1.2-0.7-1.9-1.3c-0.8-0.6-1.3-1.1-1.4-1.5c0-0.1,0-0.2,0-0.3l0.2-0.4c0.1-0.4,0-0.7-0.4-1.1c-0.2-0.2-0.4-0.4-0.7-0.5
      c-0.7-0.4-1.7-0.7-3.1-0.9c-1.4-0.3-2.7-0.4-4-0.4l-1.5,0.1c-0.4,0.5-0.8,0.9-1.2,1.3c-0.3,0.3-0.6,0.6-0.9,0.9
      c-1.2,1.1-2.4,1.9-3.5,2.5c-1.6,0.8-2.8,1-3.6,0.6c-0.1-0.1-0.1-0.2-0.1-0.4l0.1-0.4c0.5-1.2,1.4-2.3,2.7-3.3
      c0.1-0.1,0.2-0.2,0.3-0.2c1-0.7,2.3-1.5,3.9-2.3c1.1-0.5,2-0.8,2.7-0.9l0.7-0.9c0.3-0.3,0.5-0.6,0.8-0.9c0.6-0.6,1.2-1.2,1.8-1.8
      c0.1,0,0.1-0.1,0-0.1c-0.3-0.2-0.9-0.5-1.6-1C12,8.3,11.5,8,11.2,7.9C10.1,7.4,9,7.5,7.8,8.3c-0.7,0.5-1.1,1-1.1,1.5l0,0.7
      c0,0.2-0.6,0.5-1.8,1c-0.2,0.1-0.4,0.1-0.6,0.2c-0.3,0.1-0.5,0.1-0.6,0l0,0l-0.1-0.1c-0.1-0.2,0.4-1,1.6-2.3C5.2,9.2,5.3,9.1,5.4,9
      l0,0l0,0c2.1-2.2,4.5-3,7.4-2.5c0.8,0.1,2.1,0.6,3.9,1.4c0.2-0.2,0.5-0.4,1-0.7c0.6-0.3,1.1-0.5,1.5-0.5c0.8,0,1.3,0.3,1.5,0.9
      c0.1,0.4-0.2,0.9-0.9,1.6c-0.7,0.7-1.4,1.2-2.1,1.4c-0.8,0.2-1.7,0.1-2.6-0.4c-0.4,0.3-0.9,0.8-1.4,1.4c0,0,0,0.1-0.1,0.1l-1.2,1.5
      l0,0.1l0.8,0c0.6,0,1.2,0.1,1.8,0.3c1.7,0.5,3.1,1.2,4.3,2c0.5,0.4,1.1,0.8,1.6,1.3c0.5,0.5,1,1.1,1.5,1.8c0.4,0.6,0.8,1.1,1.1,1.7
      C23.8,21.2,23.9,21.8,23.8,22.1z M17.6,8.2c0.2,0.1,0.5,0.2,1.1,0.1c0.6,0,1.1-0.2,1.3-0.4c0.1-0.1,0.1-0.2,0-0.3
      c-0.2-0.1-0.4-0.2-0.8-0.1c-0.3,0.1-0.7,0.2-1.1,0.4C17.7,8.1,17.5,8.2,17.6,8.2z M8.9,15.8l-0.2,0c-0.5,0.1-1.1,0.2-1.5,0.4
      c-0.7,0.2-1.3,0.5-1.8,0.7c-0.5,0.2-0.9,0.5-1.3,0.7c-1.2,0.8-1.8,1.6-1.7,2.3l0.1,0.1c0.3,0.2,1,0,1.9-0.5
      c1.3-0.8,2.4-1.6,3.5-2.7C8.3,16.6,8.6,16.2,8.9,15.8z"/>
      <text transform="translate(40 15.6)">
        ZBRUSH
      </text>
  </g>

</svg>
