<svg xmlns="http://www.w3.org/2000/svg">
  <symbol viewBox="0 0 175 22.53" id="node">
    <path d="M20.6,5.1,12.4.3a1.72,1.72,0,0,0-1.7,0L2.3,5.1a1.86,1.86,0,0,0-.9,1.5v9.5a1.86,1.86,0,0,0,.9,1.5l2.2,1.2a4.14,4.14,0,0,0,1.9.5,2.25,2.25,0,0,0,2.4-2.1V7.4a.19.19,0,0,0-.1-.3h-1c-.2,0-.5.2-.5.3v9.5c0,.7-.7,1.5-1.9.8L3,16.4c-.1,0-.1-.1-.1-.2V6.6a.22.22,0,0,1,.2-.2l8.3-4.8h.3l8.2,4.8c.1,0,0,.1,0,.2v9.7l-8.2,4.8h-.2L9.4,19.8H9.2c-.4.2-.8.4-1.3.6-.1,0-.3.1.1.4l2.8,1.6a2.92,2.92,0,0,0,.9.2,2.92,2.92,0,0,0,.9-.2l8.2-4.8a1.76,1.76,0,0,0,.8-1.5V6.6A2.68,2.68,0,0,0,20.6,5.1Zm-6.5,9.5c-2.2,0-2.7-.6-2.8-1.7,0-.1-.1-.3-.2-.3H9.9c-.1,0-.2.2-.2.3,0,1.4.8,3.1,4.4,3.1,2.6,0,4.1-1,4.1-2.8s-1.2-2.3-3.8-2.6-2.8-.5-2.8-1.1.2-1.2,2.1-1.2c1.7,0,2.3.4,2.6,1.5a.22.22,0,0,0,.2.2h1.1c.1,0,.1,0,.2-.1s.1-.1.1-.2c-.2-1.9-1.5-2.9-4.1-2.9-2.4,0-3.8,1-3.8,2.7s1.4,2.3,3.7,2.5c2.7.3,2.9.7,2.9,1.2C16.5,14.2,15.8,14.6,14.1,14.6Z" transform="translate(0.04 -0.08)"/>
    <text class="cls-1" transform="translate(40.04 15.53)">NODEJS</text>
  </symbol>
  <symbol viewBox="0 0 175 22.53" id="react">
    <g>
      <circle cx="11.54" cy="11.32" r="2"/>
      <path d="M19.2,8A8.4,8.4,0,0,1,18,7.6c.1-.4.2-.9.3-1.3.4-2.4,0-4-1.2-4.7A2,2,0,0,0,16,1.3c-1.3,0-2.8.9-4.5,2.5C9.9,2.3,8.3,1.4,7,1.4a2,2,0,0,0-1.1.3C4.8,2.3,4.3,4,4.7,6.4L5,7.6A8.4,8.4,0,0,1,3.8,8C1.6,8.9.3,10,.3,11.4s1.2,2.5,3.5,3.4a8.4,8.4,0,0,1,1.2.4c-.1.4-.2.9-.3,1.3-.4,2.4,0,4,1.2,4.7a2,2,0,0,0,1.1.3c1.3,0,2.9-.9,4.5-2.5,1.6,1.6,3.2,2.5,4.5,2.5a2,2,0,0,0,1.1-.3c1.1-.7,1.6-2.3,1.2-4.7-.1-.4-.2-.8-.3-1.3.4-.1.8-.3,1.2-.4,2.2-.9,3.5-2,3.5-3.4S21.5,8.9,19.2,8ZM16.6,2.6c.7.4,1,1.8.7,3.6A5.27,5.27,0,0,1,17,7.4,13.61,13.61,0,0,0,14,7a14.54,14.54,0,0,0-1.9-2.3c1.3-1.3,2.7-2.2,3.8-2.2A.82.82,0,0,1,16.6,2.6Zm-2,10.6a16.29,16.29,0,0,1-1.1,1.7,13.4,13.4,0,0,1-2,.1,12.75,12.75,0,0,1-2-.1,16.29,16.29,0,0,1-1.1-1.7,15.11,15.11,0,0,1-.9-1.8l.9-1.8A16.29,16.29,0,0,1,9.5,7.9a13.4,13.4,0,0,1,2-.1,12.75,12.75,0,0,1,2,.1,16.29,16.29,0,0,1,1.1,1.7,15.11,15.11,0,0,1,.9,1.8Zm1.5-.6a13.36,13.36,0,0,1,.7,1.8,12.5,12.5,0,0,1-1.9.3,10.91,10.91,0,0,0,.6-1.1A8.79,8.79,0,0,0,16.1,12.6Zm-4.6,4.8-1.2-1.5h2.4A9.83,9.83,0,0,1,11.5,17.4ZM8.2,14.8c-.7-.1-1.3-.2-1.9-.3A13.36,13.36,0,0,1,7,12.7c.2.4.4.7.6,1.1S8,14.4,8.2,14.8ZM6.9,10.2a13.36,13.36,0,0,1-.7-1.8,12.5,12.5,0,0,1,1.9-.3c-.1.3-.4.6-.6,1S7.1,9.8,6.9,10.2Zm4.6-4.8,1.2,1.5H10.3A9.83,9.83,0,0,1,11.5,5.4Zm4,3.7L14.9,8c.7.1,1.3.2,1.9.3a13.36,13.36,0,0,1-.7,1.8A8.79,8.79,0,0,1,15.5,9.1ZM5.7,6.2c-.3-1.9,0-3.2.7-3.6A1.42,1.42,0,0,1,7,2.4c1.1,0,2.4.9,3.8,2.2-.6.7-1.3,1.5-1.9,2.3-1,.1-2,.3-3,.4A5.16,5.16,0,0,0,5.7,6.2ZM1.3,11.4c0-.8,1-1.7,2.8-2.4.4-.1.8-.3,1.2-.4a20.16,20.16,0,0,0,1.1,2.8c-.4.9-.8,1.9-1.1,2.8C2.8,13.5,1.3,12.4,1.3,11.4Zm5.1,8.8c-.7-.4-1-1.8-.7-3.6A5.27,5.27,0,0,1,6,15.4a13.61,13.61,0,0,0,3,.4,14.54,14.54,0,0,0,1.9,2.3c-1.3,1.3-2.7,2.2-3.8,2.2A.82.82,0,0,1,6.4,20.2Zm10.9-3.6c.3,1.9.1,3.2-.7,3.6a1.42,1.42,0,0,1-.6.2c-1.1,0-2.4-.9-3.8-2.2.6-.7,1.3-1.5,1.9-2.3,1-.1,2-.3,3-.4A5.16,5.16,0,0,0,17.3,16.6Zm1.6-2.8c-.4.1-.8.3-1.1.4a20.16,20.16,0,0,0-1.1-2.8c.4-.9.8-1.9,1.1-2.8,2.5.7,4,1.8,4,2.8C21.7,12.2,20.7,13.1,18.9,13.8Z" transform="translate(0.04 -0.08)"/>
    </g>
    <text class="cls-1" transform="translate(40.04 15.53)">REACT</text>
  </symbol>
  <symbol viewBox="0 0 175 22.53" id="electron">
    <g>
      <path d="M16,18.5a14.91,14.91,0,0,1-7.1-2.2,15.66,15.66,0,0,1-4-3.2.37.37,0,0,1-.1-.3c0-.1.1-.2.2-.3a.37.37,0,0,1,.3-.1c.1,0,.3.1.3.2a15.73,15.73,0,0,0,3.8,3,14.17,14.17,0,0,0,6.6,2,4,4,0,0,0,2.4-.6.37.37,0,0,1,.3-.1.52.52,0,0,1,.4.2c.1.1.1.2.1.4s-.1.2-.2.3A6.32,6.32,0,0,1,16,18.5Zm-12.1-7a.52.52,0,0,1-.4-.2c-.9-1.7-1-3.1-.4-4.2S5.1,5.4,7,5.4a13.66,13.66,0,0,1,1.9.2c.1,0,.2.1.3.2V6a.46.46,0,0,1-.5.4A10.28,10.28,0,0,0,7,6.3c-1.5,0-2.6.4-3,1.3s-.3,2,.4,3.3c.1.1.1.2,0,.4s-.1.2-.2.3C4.1,11.4,4,11.5,3.9,11.5Z" transform="translate(0.04 -0.08)"/>
      <path d="M3.2,16.1a.66.66,0,0,1-.5-.4c-.4-2.5,2.2-5.9,6.2-8.2a16.6,16.6,0,0,1,4.8-1.9.46.46,0,0,1,.5.4.76.76,0,0,1-.1.4c-.1.2-.2.2-.3.2A20,20,0,0,0,9.2,8.4c-3.6,2.1-6.1,5.2-5.7,7.3C3.7,15.8,3.6,16.1,3.2,16.1ZM18,12.9a.37.37,0,0,1-.3-.1.62.62,0,0,1-.1-.7c1.5-1.8,2-3.5,1.4-4.6-.5-.8-1.5-1.2-3-1.3a.5.5,0,0,1,0-1,4.21,4.21,0,0,1,3.8,1.7c.9,1.5.3,3.6-1.5,5.7C18.3,12.9,18.2,12.9,18,12.9Z" transform="translate(0.04 -0.08)"/>
      <path d="M11.5,21.6c-1.7,0-3.2-1.5-4.2-4.2v-.3l.3-.3h.2c.2,0,.4.1.4.3.8,2.2,2,3.5,3.3,3.5A3.21,3.21,0,0,0,14,18.7a.52.52,0,0,1,.4-.2.37.37,0,0,1,.3.1c.1.1.2.2.2.3a.76.76,0,0,1-.1.4C13.9,20.8,12.8,21.6,11.5,21.6Zm3.8-4.4c-.1,0-.2-.1-.3-.2s-.1-.2,0-.4a14.87,14.87,0,0,0,.7-4.7c0-4.1-1.4-7.7-3.3-8.6a.48.48,0,0,1-.2-.6c.1-.2.2-.3.4-.3h.2c2.3,1,3.9,4.9,3.9,9.4a16.79,16.79,0,0,1-.7,5c-.1.2-.2.3-.4.3Zm4.1.9a1.5,1.5,0,1,1,1.5-1.5A1.47,1.47,0,0,1,19.4,18.1Zm0-2a.5.5,0,1,0,.5.5A.47.47,0,0,0,19.4,16.1Zm-15.8,2a1.5,1.5,0,0,1,0-3,1.54,1.54,0,0,1,1.5,1.5A1.61,1.61,0,0,1,3.6,18.1Zm0-2a.5.5,0,0,0,0,1,.5.5,0,0,0,0-1Z" transform="translate(0.04 -0.08)"/>
      <path d="M11.5,4.2A1.54,1.54,0,0,1,10,2.7a1.5,1.5,0,0,1,3,0A1.54,1.54,0,0,1,11.5,4.2Zm0-2.1a.47.47,0,0,0-.5.5.56.56,0,0,0,.5.6.47.47,0,0,0,.5-.5A.56.56,0,0,0,11.5,2.1Zm0,10.9a1.17,1.17,0,0,1-1.1-.9,1.06,1.06,0,0,1,.9-1.3h.2a1.17,1.17,0,0,1,1.1.9,1.13,1.13,0,0,1-.9,1.3Z" transform="translate(0.04 -0.08)"/>
    </g>
    <text class="cls-1" transform="translate(40.04 15.53)">ELECTRON</text>
  </symbol>
  <symbol viewBox="0 0 175 22.53" id="graphql">
    <g>
      <path d="M9.2,18.9c-.1,0-.1,0-.2-.1L6.5,17.4a.45.45,0,1,1,.4-.8L9.4,18a.48.48,0,0,1,.2.6C9.4,18.8,9.3,18.9,9.2,18.9Zm9.5-5.7a.43.43,0,0,1-.4-.4V9.9a.4.4,0,0,1,.8,0v2.8A.46.46,0,0,1,18.7,13.2Zm-5.6-7a.76.76,0,0,1-.4-.2l-.2-.4a.45.45,0,1,1,.8-.4l.2.3a.48.48,0,0,1-.2.6A.31.31,0,0,1,13.1,6.2ZM6,12.9c-.1,0-.1,0-.2-.1a.48.48,0,0,1-.2-.6l.8-1.3a.45.45,0,0,1,.8.4l-.8,1.3C6.3,12.8,6.2,12.9,6,12.9Zm7.7-6.2a.48.48,0,0,0-.2.6l3.5,6a.52.52,0,0,0,.4.2c.1,0,.1,0,.2-.1a.48.48,0,0,0,.2-.6l-3.5-6A.66.66,0,0,0,13.7,6.7Z" transform="translate(0.04 -0.08)"/>
      <path d="M3.9,8.6v2a.43.43,0,0,0,.4.4.43.43,0,0,0,.4-.4v-2A1.68,1.68,0,0,0,5.8,7.1a.76.76,0,0,0-.1-.4l4.6-2.6-2.9,5a.4.4,0,0,0,.2.6c.1,0,.1.1.2.1a.76.76,0,0,0,.4-.2l2.9-5c.1,0,.3.1.4.1a1.61,1.61,0,0,0,1.1-.5l4.6,2.7v.3a1.6,1.6,0,1,0,1.6-1.6,1.66,1.66,0,0,0-1.2.5L13,3.4V3A1.6,1.6,0,1,0,9.8,3v.4L5.3,6a1.43,1.43,0,0,0-1.1-.5A1.5,1.5,0,0,0,2.7,7.1,1.49,1.49,0,0,0,3.9,8.6Zm14.9,5.5a1.5,1.5,0,0,0-1.5,1.3H5.7a1.2,1.2,0,0,0-1.1-1.2V12.6a.43.43,0,0,0-.4-.4.43.43,0,0,0-.4.4v1.5a1.57,1.57,0,0,0,.4,3.1,2,2,0,0,0,1.5-1.1H17.1l-4.5,2.6a1.61,1.61,0,0,0-1.1-.5,1.6,1.6,0,1,0,1.6,1.6.6.6,0,0,0-.1-.4l4.6-2.7a1.61,1.61,0,0,0,1.1.5,1.56,1.56,0,0,0,1.6-1.5A1.5,1.5,0,0,0,18.8,14.1Z" transform="translate(0.04 -0.08)"/>
    </g>
    <text class="cls-1" transform="translate(40.04 15.53)">GRAPHQL</text>
  </symbol>
  <symbol viewBox="0 0 175 22.53" id="unreal">
    <path d="M19.2,16.4a.87.87,0,0,1-.8-.4c0-.2-.1-2.5-.1-4.9a46.56,46.56,0,0,1,.1-4.9,35,35,0,0,1,2.9-3.9A11.94,11.94,0,0,0,15,5.9a3.68,3.68,0,0,0-2-.4,2.68,2.68,0,0,1,1.2,2.1v8.2A5.13,5.13,0,0,1,11.8,17a1.41,1.41,0,0,1-1.2-.6l-.2-.4V5.9a.76.76,0,0,1-.5.2.62.62,0,0,1-.6-.4,3.26,3.26,0,0,1-.2-1.2c0-1.9,2.1-3.1,2.1-3.1C8.5,2.1,6,3.5,2.7,7.3S0,14.2,0,14.2A16.12,16.12,0,0,1,3.1,9.7,4.73,4.73,0,0,1,5.5,8.3a.82.82,0,0,1,.9.8v7.8c0,.8-.5.9-1,.9a2.44,2.44,0,0,1-.7-.1c2.3,3.3,7.7,3.7,7.7,3.7l2.4-2.5h.1l2.2,1.8A16.5,16.5,0,0,0,23,14c-2,1.9-3.1,2.4-3.8,2.4" transform="translate(0.04 -0.08)"/>
    <text class="cls-1" transform="translate(40.04 15.53)">UNREALENGINE</text>
  </symbol>
  <symbol viewBox="0 0 175 22.53" id="maya">
    <path d="M15.5,14.3l.1,1.4-.7-1.4a13.06,13.06,0,0,0-5.1-8l-.7-.9.6.1C14.5,7.8,15.5,14.3,15.5,14.3ZM5.4,11.8l1.7-1.4-.9-.7Zm11,9.7-.2-.3c-2.2-4.3-2.7-4.3-2.7-4.3a2.3,2.3,0,0,0-2.7-.2,3.14,3.14,0,0,0-1.7,2.1s-.1,1.5.4,1.9a2.61,2.61,0,0,0,2.8.7c.6-.1-1-1.4-1-1.4a1.34,1.34,0,0,1,.5-.1c2,.1,2.6.9,2.6.9C12.9,23.7,8.7,22,8.7,22a5.74,5.74,0,0,1-2.9-3.7,5.66,5.66,0,0,1,.4-3.5c.7-1.7.5-2.1.5-2.1a12.81,12.81,0,0,1-3.1,1.4c-.2-5.5,2.2-7,2.2-7,1.3,0,3.3,2.8,3.3,2.8C8.4,5.4,2.5,2.5,2.5,2.5A16,16,0,0,1,13.2,6.1a14.27,14.27,0,0,1,4,6.2A15.71,15.71,0,0,1,16.4,21.5Zm-1-10a13,13,0,0,0-3-4.9A14.23,14.23,0,0,0,7.7,3.9L5.9,3.5A11.27,11.27,0,0,1,8.8,6.8s1.1,2.7.5,4.3l-.3.4A18.23,18.23,0,0,0,6.1,8.1a8.56,8.56,0,0,0-1.4,4.5,23.13,23.13,0,0,0,2.7-1.2,3.7,3.7,0,0,1,.2,2.5l-.3.8s-1.6,3.6.8,5.8a7.7,7.7,0,0,1,.5-4.7l1.2-2.5a6.83,6.83,0,0,0,.1-6,3.45,3.45,0,0,1,1.6,2.2c.3,1.6.5,2.8-1.6,6.2,0,0,.9-.7,1.2-.9.8-.5,2.4-1.3,3.7,1A11.58,11.58,0,0,1,16,18.1C15.9,18.1,16.9,14.7,15.4,11.5Z" transform="translate(0.04 -0.08)"/>
    <text class="cls-1" transform="translate(40.04 15.53)">MAYA</text>
  </symbol>
  <symbol viewBox="0 0 175 22.53" id="substance">
    <path d="M12.8,1.4V5.1H19a1,1,0,0,1,1.1.9v6.5H24a.43.43,0,0,1,.4.4.55.55,0,0,1-.3.5h-4v6.1a1.06,1.06,0,0,1-1.2,1.2H5.7a1.06,1.06,0,0,1-1.2-1.2V13.4H.8c-.3,0-.6-.2-.5-.5a.47.47,0,0,1,.5-.5H4.5V6.2a1,1,0,0,1,.9-1.1h6.5V1.4a.64.64,0,0,1,.5-.7A.75.75,0,0,1,12.8,1.4ZM7.1,13.2h0v2.6a.35.35,0,0,0,.1.2c1.7,1,3.3,1.9,5,2.9a.19.19,0,0,0,.3,0c1.6-1,3.3-1.9,5-2.9.1-.1.2-.1.2-.3V13.3c0-.2-.1-.2-.2-.3-1.6-.5-3.3-1.1-4.9-1.6-.7-.2-1.4-.5-2.2-.7l.1-.1c.6-.4,1.3-.7,1.9-1.1h.2c.9.5,1.8,1,2.6,1.5a.35.35,0,0,1,.1.2.75.75,0,0,0,.1.5c.1.1.3.1.4.2s.1,0,.2.1c.6.2,1.1.4,1.7.6V10a.35.35,0,0,0-.1-.2c-1.7-1-3.3-1.9-5-2.9a.19.19,0,0,0-.3,0c-1.7,1-3.3,1.9-5,2.9-.2,0-.3.1-.2.2v2.4c0,.2,0,.2.2.3,2.3.7,4.6,1.5,6.9,2.2.1,0,.1,0,.2.1-.3.2-.2.1-1.2.5-.7.7-.8.8-1,.6-.8-.4-1.5-.9-2.3-1.3-.3-.2-.5-.3-.4-.7a.35.35,0,0,0-.1-.2A20.16,20.16,0,0,0,7.1,13.2Z" transform="translate(0.04 -0.08)"/>
    <text class="cls-1" transform="translate(40.04 15.53)">SUBSTANCE DESIGNER</text>
  </symbol>
  <symbol viewBox="0 0 175 22.53" id="zbrush">
    <path d="M12.8,4.5a1.9,1.9,0,0,1,.3-1.4c.4-.6.8-.9,1.3-.9a1.87,1.87,0,0,1,1.7,1,3.2,3.2,0,0,1,.7,1.9c0,.3-.5.6-1.5.6a3.19,3.19,0,0,1-1.8-.2A1.69,1.69,0,0,1,12.8,4.5Zm11,17.6q-.15.15-.6,0a9.22,9.22,0,0,1-1.9-1.3c-.8-.6-1.3-1.1-1.4-1.5V19l.2-.4a1.05,1.05,0,0,0-.4-1.1A1.79,1.79,0,0,0,19,17a8.86,8.86,0,0,0-3.1-.9,18.71,18.71,0,0,0-4-.4l-1.5.1a15.38,15.38,0,0,1-1.2,1.3l-.9.9a17.67,17.67,0,0,1-3.5,2.5q-2.4,1.2-3.6.6c-.1-.1-.1-.2-.1-.4l.1-.4A8.24,8.24,0,0,1,3.9,17c.1-.1.2-.2.3-.2a31,31,0,0,1,3.9-2.3,10.53,10.53,0,0,1,2.7-.9l.7-.9c.3-.3.5-.6.8-.9L14.1,10c.1,0,.1-.1,0-.1-.3-.2-.9-.5-1.6-1a3.18,3.18,0,0,0-1.3-1,3.29,3.29,0,0,0-3.4.4c-.7.5-1.1,1-1.1,1.5v.7c0,.2-.6.5-1.8,1-.2.1-.4.1-.6.2s-.5.1-.6,0h0l-.1-.1c-.1-.2.4-1,1.6-2.3,0-.1.1-.2.2-.3h0a7.75,7.75,0,0,1,7.4-2.5,17.09,17.09,0,0,1,3.9,1.4,5.34,5.34,0,0,1,1-.7,3.74,3.74,0,0,1,1.5-.5,1.39,1.39,0,0,1,1.5.9c.1.4-.2.9-.9,1.6a5.15,5.15,0,0,1-2.1,1.4,3.52,3.52,0,0,1-2.6-.4,9.16,9.16,0,0,0-1.4,1.4.1.1,0,0,1-.1.1l-1.2,1.5v.1h.8a5.66,5.66,0,0,1,1.8.3,15.57,15.57,0,0,1,4.3,2,18.26,18.26,0,0,1,1.6,1.3,14.28,14.28,0,0,1,1.5,1.8,16.29,16.29,0,0,1,1.1,1.7A3.11,3.11,0,0,1,23.8,22.1ZM17.6,8.2a1.66,1.66,0,0,0,1.1.1A2,2,0,0,0,20,7.9a.19.19,0,0,0,0-.3,1,1,0,0,0-.8-.1,7.6,7.6,0,0,0-1.1.4C17.7,8.1,17.5,8.2,17.6,8.2ZM8.9,15.8H8.7a6.58,6.58,0,0,0-1.5.4,17.08,17.08,0,0,0-1.8.7c-.5.2-.9.5-1.3.7-1.2.8-1.8,1.6-1.7,2.3l.1.1c.3.2,1,0,1.9-.5a18.18,18.18,0,0,0,3.5-2.7A3.18,3.18,0,0,0,8.9,15.8Z" transform="translate(0.04 -0.08)"/>
    <text class="cls-1" transform="translate(40.04 15.53)">ZBRUSH</text>
  </>
</svg>
