<svg id="Layer_1" data-name="Layer 1" xmlns="http://www.w3.org/2000/svg" viewBox="0 0 32.58 11.42">
  <defs>
    <style>
      .cls-1 {
        fill: #d1cdd3;
        stroke: #c9c9c9;
        stroke-miterlimit: 10;
        stroke-width: 0.2px;
      }
    </style>
  </defs>
  <title>loading</title>
  <g>
    <path class="cls-1" d="M1.12.71c.34-.07.42,0,.44.29,0,.74.05,1.49,0,2.23,0,.41,0,.8,0,1.21s0,1,0,1.44c0,2.12,0,2.55,0,3,0,.6,0,1.2,0,1.79v.49c.17.14.36.06.53,0a3.33,3.33,0,0,1,1-.08,2.7,2.7,0,0,1,.41,0,.4.4,0,0,1,.18.07.23.23,0,0,1,0,.39.4.4,0,0,1-.23.06.36.36,0,0,1-.2,0,2.09,2.09,0,0,0-1.11,0l-.76.17a.3.3,0,0,1-.3-.34,8.46,8.46,0,0,0,.07-1.88V9.47c0-.85,0-3.66,0-4.21,0-.24,0-.47,0-.69L1.13,2c0-.39,0-.75,0-1.12C1.11.83,1.12.76,1.12.71Z" transform="translate(-0.95 -0.51)"/>
    <path class="cls-1" d="M4.18,8.94c0-.8-.07-1.77-.12-2.72,0-.46,0-.92-.08-1.39,0-.09,0-.2,0-.3a5.48,5.48,0,0,1,0-.55C4,3.46,4,3,4.1,2.44a3.62,3.62,0,0,1,.5-1.19A1.24,1.24,0,0,1,5.12.82c.07,0,.15,0,.18-.06C5.5.52,5.72.61,6,.68A3.32,3.32,0,0,1,6.73,1a1.57,1.57,0,0,1,.69,1.36c0,1,0,2.05,0,3.08s0,2.2,0,3.29a10.23,10.23,0,0,1-.26,2A1.36,1.36,0,0,1,5.84,11.8a2,2,0,0,1-1.24-.53,1.22,1.22,0,0,1-.42-.94ZM7,2.81c0-.17,0-.35,0-.51a1,1,0,0,0-.41-.83A4.16,4.16,0,0,0,6,1.12a.23.23,0,0,0-.18,0c-.14,0-.27.11-.4.15a.77.77,0,0,0-.46.31,1.94,1.94,0,0,0-.38.87A5.7,5.7,0,0,0,4.4,4.74c0,.09,0,.2,0,.3,0,.65.07,1.3.11,2s.08,1.29.08,2c0,.41,0,.8,0,1.21a1,1,0,0,0,.64,1,2.15,2.15,0,0,0,.64.16.49.49,0,0,0,.48-.12,1.72,1.72,0,0,0,.53-1A9.39,9.39,0,0,0,7,8.34.61.61,0,0,1,7,8.2,13.51,13.51,0,0,0,7,6.4V5c0-.44,0-.88,0-1.33C7,3.4,7,3.1,7,2.81Z" transform="translate(-0.95 -0.51)"/>
    <path class="cls-1" d="M11.15,10.2A13.92,13.92,0,0,0,9,10.28l-.08.34c-.06.26-.1.53-.14.79s-.13.22-.28.19a.23.23,0,0,1-.19-.3l.12-.64c.07-.36.12-.72.19-1.08L8.8,8.51c.12-.86.25-1.72.38-2.56s.24-1.65.34-2.46c.08-.64.12-1.3.17-1.94a.72.72,0,0,1,.36-.61.21.21,0,0,1,.3.08,1.61,1.61,0,0,1,.12.48,5.39,5.39,0,0,0,.09,1.13c.09.57.13,1.16.2,1.73.1.92.23,1.83.35,2.76l.33,2.31q.06.39.15.78c.06.34.13.68.19,1a2,2,0,0,1,0,.25.24.24,0,0,1-.25.2.25.25,0,0,1-.24-.2c0-.3-.07-.59-.1-.89C11.19,10.48,11.16,10.36,11.15,10.2ZM10.06,2.52C10,3.1,10,3.57,9.88,4s-.13.68-.19,1c-.09.63-.16,1.25-.24,1.88s-.19,1.14-.26,1.71a3.29,3.29,0,0,0-.11,1,1.08,1.08,0,0,0,.3.11,3.38,3.38,0,0,0,.45,0L11,9.67V9.43c-.06-.49-.15-1-.21-1.47-.1-.7-.21-1.41-.3-2.11-.07-.53-.15-1-.21-1.57s-.07-1-.12-1.45A1.14,1.14,0,0,0,10.06,2.52Z" transform="translate(-0.95 -0.51)"/>
    <path class="cls-1" d="M12.93,11.52c0-.07-.07-.11-.07-.14,0-.43,0-.87,0-1.32s.07-.63.1-1,0-.59,0-.86,0-.42,0-.64a14.35,14.35,0,0,0-.09-1.84c0-.61,0-1.25,0-1.88a6.86,6.86,0,0,0-.05-1.63c0-.35,0-.71,0-1.07,0-.19.13-.34.23-.49s.15-.07.19,0c.46.26,1,.37,1.41.64a2.12,2.12,0,0,1,.82.93,3,3,0,0,1,.22,1c0,.75,0,1.5,0,2.28,0,.07,0,.12,0,.17a41.43,41.43,0,0,0,0,4.17,1.29,1.29,0,0,1-.43,1,2.85,2.85,0,0,1-1.72.83.43.43,0,0,1-.17,0c-.09,0-.13-.1-.18-.12A.85.85,0,0,0,12.93,11.52Zm.4-.37c.08,0,.15.07.2,0A2.29,2.29,0,0,0,15,10.54a.85.85,0,0,0,.26-.63V9.47c0-.62,0-1.25,0-1.87s.07-1.12.1-1.69c0-.19,0-.38,0-.59s0-.38,0-.57c0-.49,0-1,0-1.5a1.76,1.76,0,0,0-1.08-1.64,4.23,4.23,0,0,0-.58-.25,2.82,2.82,0,0,0-.3-.09,5.31,5.31,0,0,0,0,.79,21.11,21.11,0,0,1,0,3.18,3.4,3.4,0,0,0,0,.78,6.29,6.29,0,0,1,.06,1.15v.54c0,.55,0,1.11,0,1.68A9.4,9.4,0,0,0,13.33,11.15Z" transform="translate(-0.95 -0.51)"/>
    <path class="cls-1" d="M17.63.79c.17,0,.27.07.28.18a.3.3,0,0,1-.27.34A.34.34,0,0,1,17.35,1,.3.3,0,0,1,17.63.79Zm-.15,10.77c0-.55,0-1.16,0-1.66a15.08,15.08,0,0,1,.08-1.64,15.28,15.28,0,0,0,.06-2.35c-.05-.63,0-1.39-.05-2a12,12,0,0,0-.09-1.72.33.33,0,0,1,0-.14A.23.23,0,0,1,17.78,2a.5.5,0,0,1,.13.25,2.27,2.27,0,0,1,0,.45l0,1.79c0,.89,0,2,0,2.74s-.08,1.21-.11,1.73c0,.27,0,.54,0,1s0,.88.05,1.26a2.17,2.17,0,0,1,0,.26.19.19,0,0,1-.27.18A1.08,1.08,0,0,1,17.48,11.56Z" transform="translate(-0.95 -0.51)"/>
    <path class="cls-1" d="M20.29,2.56c0,.37,0,.71,0,1.06a10.7,10.7,0,0,1,0,1.79c0,.65,0,1.32-.08,2a31.9,31.9,0,0,0,0,3.66c0,.08,0,.16,0,.25a.34.34,0,0,1-.12.29c-.1.06-.19,0-.29.06a1.12,1.12,0,0,1-.05-.27c0-.86,0-1.74,0-2.6A4.56,4.56,0,0,1,19.86,8c.07-.6.08-1.19.09-1.78s0-.92.06-1.38c0-.94-.12-1.86-.19-2.79,0-.37,0-.75,0-1.12a.17.17,0,0,1,.15-.17l.28,0c0,.08.1.12.1.19A25.5,25.5,0,0,1,21,3.79c.14.76.3,1.52.51,2.27s.27,1.25.4,1.88c0,0,0,0,0,0,.16.61.31,1.24.42,1.86a1.66,1.66,0,0,0,.11.38c.09-.06.07-.16.07-.23,0-.42.05-.84.06-1.26s0-1,.05-1.42c0-.22,0-.42,0-.61,0-.63,0-1.25,0-1.88s-.05-1.13,0-1.69,0-1.32,0-2a.67.67,0,0,1,0-.25.4.4,0,0,1,.17-.15A.26.26,0,0,1,23,.87a.53.53,0,0,1,0,.25c0,.46,0,.91,0,1.37,0,.68,0,1.36,0,2a21.67,21.67,0,0,1,0,2.55V8.33a3.44,3.44,0,0,1,0,.46L23,9.56a7.65,7.65,0,0,1-.07,1.06,2.82,2.82,0,0,0,0,.71.91.91,0,0,1-.07.49c-.32,0-.38,0-.44-.3-.18-.79-.34-1.58-.52-2.36-.06-.3-.17-.58-.23-.88C21.31,6.85,21,5.42,20.72,4c-.09-.41-.17-.8-.26-1.18C20.43,2.72,20.42,2.59,20.29,2.56Z" transform="translate(-0.95 -0.51)"/>
    <path class="cls-1" d="M27.1,5.19a2.28,2.28,0,0,0-.9-.07,1.85,1.85,0,0,1-.23,0c-.12,0-.23-.15-.25-.26s.08-.19.22-.23h.19c.45,0,.9,0,1.34.06a.39.39,0,0,1,.12.34c-.06.94,0,1.87,0,2.8,0,.53,0,1.08,0,1.63a6.94,6.94,0,0,1-.06,1.2,1,1,0,0,1-.09.44c-.19.43-.28.63-.78.7a6.23,6.23,0,0,1-.86-.07,1.41,1.41,0,0,1-1.06-1.1,5.09,5.09,0,0,1-.18-1.16c0-.75,0-1.51,0-2.26,0-.32,0-.69,0-1a6.23,6.23,0,0,0-.06-1.14,2.14,2.14,0,0,1,0-.51V3.19a2.52,2.52,0,0,1,0-.48l.11-.8a2.24,2.24,0,0,1,.19-.55A1.16,1.16,0,0,1,25.85.7l.19,0a1.4,1.4,0,0,1,1.49,1,1.83,1.83,0,0,1,0,.58.21.21,0,0,1-.2.23.29.29,0,0,1-.29-.2,2.16,2.16,0,0,1,0-.36.68.68,0,0,0-.35-.59,1.36,1.36,0,0,0-1.24-.07A.86.86,0,0,0,25,2c-.07.44-.12.89-.17,1.33s0,.87,0,1.29a.25.25,0,0,0,0,.17,11.61,11.61,0,0,1,.05,1.57c0,.56,0,1.12.07,1.68v.8c0,.4,0,.79,0,1.19a1.45,1.45,0,0,0,.59,1.14.49.49,0,0,0,.24.12,2.88,2.88,0,0,0,.83.11c.12,0,.29-.3.33-.39a1,1,0,0,0,.07-.37,9.3,9.3,0,0,0,0-1.06,41.68,41.68,0,0,0,0-4.17C27.14,5.32,27.11,5.27,27.1,5.19Z" transform="translate(-0.95 -0.51)"/>
    <path class="cls-1" d="M29.14,11c.21,0,.35.08.37.24s-.16.47-.34.47a.51.51,0,0,1-.4-.4A.35.35,0,0,1,29.14,11Z" transform="translate(-0.95 -0.51)"/>
    <path class="cls-1" d="M31.1,11c.21,0,.35.08.36.24a.42.42,0,0,1-.34.47.52.52,0,0,1-.39-.4A.35.35,0,0,1,31.1,11Z" transform="translate(-0.95 -0.51)"/>
    <path class="cls-1" d="M33.06,11c.21,0,.35.08.36.24a.42.42,0,0,1-.34.47.52.52,0,0,1-.39-.4A.35.35,0,0,1,33.06,11Z" transform="translate(-0.95 -0.51)"/>
  </g>
</svg>
