<?xml version="1.0" standalone="no"?>
<!DOCTYPE svg PUBLIC "-//W3C//DTD SVG 20010904//EN"
 "http://www.w3.org/TR/2001/REC-SVG-20010904/DTD/svg10.dtd">
<svg version="1.0" xmlns="http://www.w3.org/2000/svg"
 width="172.000000pt" height="172.000000pt" viewBox="0 0 172.000000 172.000000"
 preserveAspectRatio="xMidYMid meet">
<metadata>
Created by potrace 1.11, written by Peter Selinger 2001-2013
</metadata>
<g transform="translate(0.000000,172.000000) scale(0.100000,-0.100000)"
fill="#000000" stroke="none">
<path d="M825 1577 c-16 -34 -32 -64 -35 -67 -3 -3 -14 -24 -25 -47 -11 -24
-27 -43 -35 -44 -9 0 -11 -2 -3 -5 7 -3 9 -12 6 -20 -3 -7 -9 -12 -13 -9 -4 3
-7 -3 -6 -13 0 -9 -5 -16 -12 -14 -8 1 -11 -2 -7 -8 10 -17 -5 -50 -23 -51
-12 0 -13 -2 -4 -6 11 -4 10 -8 -2 -22 -8 -9 -16 -20 -17 -26 -6 -29 -34 -73
-42 -68 -6 3 -7 1 -4 -5 10 -15 -3 -43 -16 -35 -5 3 -7 1 -3 -5 8 -13 -14 -63
-24 -57 -4 3 -7 -1 -7 -8 1 -14 -81 -187 -89 -187 -3 0 -2 6 2 13 4 6 3 8 -2
4 -4 -4 -9 -18 -9 -30 0 -12 -5 -21 -11 -20 -7 1 -10 -6 -7 -17 3 -11 0 -20
-6 -20 -6 0 -11 -9 -11 -19 0 -11 -5 -23 -12 -27 -7 -5 -8 -3 -3 6 5 9 4 11
-4 6 -6 -4 -11 -13 -9 -19 3 -20 -13 -57 -24 -57 -6 0 -8 -3 -5 -7 4 -3 2 -12
-4 -20 -6 -7 -8 -13 -3 -13 5 0 3 -4 -5 -9 -18 -11 -24 -48 -11 -56 6 -4 8
-11 4 -16 -3 -5 -1 -8 4 -7 11 4 138 -122 135 -133 -2 -5 0 -8 5 -7 10 4 98
-83 95 -93 -2 -5 1 -8 5 -6 13 3 128 -116 124 -128 -2 -5 -1 -7 3 -3 10 9 55
-33 48 -45 -3 -6 -2 -7 4 -4 12 8 64 -48 55 -59 -4 -4 -2 -4 5 0 6 3 14 2 18
-4 4 -7 13 -7 26 0 11 6 25 8 32 4 9 -6 8 -3 -1 8 -9 11 -10 18 -2 23 5 3 10
0 10 -7 0 -7 6 -2 13 12 8 14 19 24 25 23 7 -2 11 1 9 6 -3 11 282 296 297
296 6 0 11 5 11 11 0 12 75 94 84 91 3 -1 7 3 9 8 2 6 10 17 18 26 13 15 13
22 -7 65 -13 27 -27 52 -32 55 -5 4 -10 18 -10 32 -1 14 -5 23 -9 20 -5 -2 -8
3 -8 11 0 9 -4 16 -8 16 -11 0 -32 61 -25 73 3 6 1 7 -5 3 -6 -3 -16 2 -22 13
-9 18 -8 20 7 15 11 -3 8 0 -5 8 -12 8 -19 17 -16 21 4 4 2 7 -5 7 -8 0 -11 6
-7 16 3 8 2 12 -4 9 -9 -5 -15 16 -11 38 1 5 -3 6 -9 2 -5 -3 -10 -1 -10 4 0
18 -3 26 -17 39 -7 8 -11 18 -8 23 4 5 1 9 -6 9 -9 0 -9 3 0 14 9 11 9 16 0
22 -8 5 -9 3 -4 -6 5 -8 3 -11 -6 -8 -8 3 -13 13 -13 22 1 9 -3 16 -8 16 -6 0
-7 7 -4 16 3 8 2 13 -3 10 -12 -8 -79 125 -73 144 3 8 1 12 -3 8 -8 -8 -39 41
-31 49 2 3 -4 13 -15 24 -11 11 -16 25 -12 35 4 12 3 15 -5 10 -7 -4 -12 -2
-12 4 0 6 -8 22 -17 37 -10 14 -18 32 -19 40 -2 8 -10 23 -20 34 -9 10 -15 22
-11 25 3 3 -1 13 -9 22 -7 10 -19 25 -26 34 -12 16 -16 10 -43 -45z m55 -507
c11 -22 18 -40 15 -40 -3 0 4 -10 15 -22 12 -13 19 -31 16 -41 -2 -11 -2 -16
1 -13 8 8 43 -49 43 -69 0 -8 4 -15 8 -15 10 0 48 -80 45 -92 -2 -5 1 -8 6 -8
11 0 26 -39 22 -59 -1 -7 2 -10 8 -6 6 3 11 4 11 1 0 -2 3 -13 7 -23 6 -15 5
-16 -9 -5 -13 10 -18 10 -24 1 -4 -8 -3 -9 4 -5 7 4 12 1 12 -8 0 -19 -11 -20
-30 -3 -12 10 -12 9 -1 -5 11 -15 10 -20 -2 -32 -8 -8 -17 -12 -21 -9 -3 3 -9
-2 -12 -12 -8 -19 -54 -68 -54 -57 0 4 -5 -1 -11 -11 -6 -9 -15 -15 -20 -11
-5 3 -8 0 -7 -8 2 -7 -5 -12 -15 -12 -13 1 -15 -2 -8 -10 7 -8 4 -15 -8 -23
-14 -9 -20 -7 -29 7 -6 10 -8 20 -4 23 4 2 1 2 -6 1 -14 -4 -53 31 -44 40 3 3
0 6 -7 6 -7 0 -9 4 -6 10 3 6 -1 7 -9 4 -11 -4 -16 0 -16 11 0 9 -4 13 -10 10
-9 -6 -14 7 -11 27 0 4 -7 4 -16 1 -11 -4 -14 -3 -9 5 4 7 2 12 -4 12 -6 0 -8
5 -5 10 4 6 3 10 -2 9 -25 -4 -34 3 -29 24 3 12 3 16 0 9 -8 -17 -24 -5 -18
13 4 8 11 12 17 8 6 -3 7 -1 3 6 -4 6 -2 18 4 26 7 8 10 15 7 15 -3 0 10 27
29 61 18 33 34 65 34 70 0 5 4 9 10 9 5 0 9 3 9 8 -3 20 2 32 13 26 7 -4 8 -3
4 4 -6 10 9 48 25 62 3 3 11 20 18 38 9 20 19 31 27 28 7 -3 16 -1 19 5 4 5 3
8 -2 7 -9 -3 -13 5 -13 27 0 24 8 17 30 -25z"/>
<path d="M976 833 c-6 -14 -5 -15 5 -6 7 7 10 15 7 18 -3 3 -9 -2 -12 -12z"/>
<path d="M675 1329 c-4 -6 -5 -12 -2 -15 2 -3 7 2 10 11 7 17 1 20 -8 4z"/>
<path d="M355 549 c-4 -6 -5 -12 -2 -15 2 -3 7 2 10 11 7 17 1 20 -8 4z"/>
</g>
</svg>
